HIERARCHY
ROOT Hips
{
	OFFSET -0.001795 -0.223333 0.028219
	CHANNELS 6 Xposition Yposition Zposition Zrotation Yrotation Xrotation 
	JOINT LeftUpLeg
	{
		OFFSET 0.069520 -0.091406 -0.006815
		CHANNELS 3 Zrotation Yrotation Xrotation
		JOINT LeftLeg
		{
			OFFSET 0.034277 -0.375199 -0.004496
			CHANNELS 3 Zrotation Yrotation Xrotation
			JOINT LeftFoot
			{
				OFFSET -0.013596 -0.397961 -0.043693
				CHANNELS 3 Zrotation Yrotation Xrotation
				JOINT LeftToe
				{
					OFFSET 0.026358 -0.055791 0.119288
					CHANNELS 3 Zrotation Yrotation Xrotation
					End Site
					{
						OFFSET 0.000000 0.000000 0.000000
					}
				}
			}
		}
	}
	JOINT RightUpLeg
	{
		OFFSET -0.067670 -0.090522 -0.004320
		CHANNELS 3 Zrotation Yrotation Xrotation
		JOINT RightLeg
		{
			OFFSET -0.038290 -0.382569 -0.008850
			CHANNELS 3 Zrotation Yrotation Xrotation
			JOINT RightFoot
			{
				OFFSET 0.015774 -0.398415 -0.042312
				CHANNELS 3 Zrotation Yrotation Xrotation
				JOINT RightToe
				{
					OFFSET -0.025372 -0.048144 0.123348
					CHANNELS 3 Zrotation Yrotation Xrotation
					End Site
					{
						OFFSET 0.000000 0.000000 0.000000
					}
				}
			}
		}
	}
	JOINT Spine
	{
		OFFSET -0.002533 0.108963 -0.026696
		CHANNELS 3 Zrotation Yrotation Xrotation
		JOINT Spine1
		{
			OFFSET 0.005487 0.135180 0.001092
			CHANNELS 3 Zrotation Yrotation Xrotation
			JOINT Spine2
			{
				OFFSET 0.001457 0.052922 0.025425
				CHANNELS 3 Zrotation Yrotation Xrotation
				JOINT Neck
				{
					OFFSET -0.002778 0.213870 -0.042857
					CHANNELS 3 Zrotation Yrotation Xrotation
					JOINT Head
					{
						OFFSET 0.005152 0.064970 0.051349
						CHANNELS 3 Zrotation Yrotation Xrotation
						End Site
						{
							OFFSET 0.000000 0.000000 0.000000
						}
					}
				}
				JOINT LeftShoulder
				{
					OFFSET 0.078845 0.121749 -0.034090
					CHANNELS 3 Zrotation Yrotation Xrotation
					JOINT LeftArm
					{
						OFFSET 0.090977 0.030469 -0.008868
						CHANNELS 3 Zrotation Yrotation Xrotation
						JOINT LeftForeArm
						{
							OFFSET 0.259612 -0.012772 -0.027456
							CHANNELS 3 Zrotation Yrotation Xrotation
							JOINT LeftHand
							{
								OFFSET 0.249234 0.008986 -0.001171
								CHANNELS 3 Zrotation Yrotation Xrotation
								End Site
								{
									OFFSET 0.000000 0.000000 0.000000
								}
							}
						}
					}
				}
				JOINT RightShoulder
				{
					OFFSET -0.081759 0.118833 -0.038615
					CHANNELS 3 Zrotation Yrotation Xrotation
					JOINT RightArm
					{
						OFFSET -0.096012 0.032551 -0.009143
						CHANNELS 3 Zrotation Yrotation Xrotation
						JOINT RightForeArm
						{
							OFFSET -0.253742 -0.013329 -0.021401
							CHANNELS 3 Zrotation Yrotation Xrotation
							JOINT RightHand
							{
								OFFSET -0.255298 0.007772 -0.005559
								CHANNELS 3 Zrotation Yrotation Xrotation
								End Site
								{
									OFFSET 0.000000 0.000000 0.000000
								}
							}
						}
					}
				}
			}
		}
	}
}
MOTION
Frames: 7
Frame Time: 0.050000
-0.032133 0.918765 -0.021297 -3.256266 6.155415 4.420842 8.590266 -1.025391 -25.192786 -2.859512 -0.581178 29.535843 2.231502 6.303000 3.809906 0.000000 0.000000 0.000000 -1.628881 1.951851 -26.279237 4.304993 -1.006381 26.646708 -5.744387 -14.974164 10.644331 0.000000 0.000000 0.000000 -7.698928 0.345423 11.040780 3.064233 -1.621035 1.784307 -0.727111 -8.609750 9.824819 -5.315553 4.045903 -7.752674 0.000000 0.000000 0.000000 6.984865 -14.125683 4.251945 -15.749169 -31.090018 0.876848 71.341295 -38.381351 -23.467789 0.000000 0.000000 0.000000 -8.000422 13.373821 4.468738 36.684988 20.384228 1.551447 -111.443352 60.344055 -78.456707 0.000000 0.000000 0.000000 
-0.031688 0.917196 -0.022137 -3.587426 5.459302 4.006251 9.039566 -0.870899 -24.725434 -3.074647 -0.440397 29.690516 2.577977 6.737485 3.250145 0.000000 0.000000 0.000000 -0.996628 2.120759 -26.148619 3.871725 -0.792461 27.005336 -5.525295 -14.598182 10.202086 0.000000 0.000000 0.000000 -7.976972 0.376724 11.030968 3.116926 -1.660802 2.007128 -1.091800 -9.264759 9.415334 -4.789395 3.633689 -6.489478 0.000000 0.000000 0.000000 7.751015 -14.026637 4.100590 -14.399040 -32.051579 0.840643 74.056803 -39.535148 -25.212354 0.000000 0.000000 0.000000 -9.649688 12.995441 4.444985 34.724794 20.348355 1.353936 -113.501293 60.293173 -81.416183 0.000000 0.000000 0.000000 
-0.031492 0.914058 -0.022953 -3.690955 4.782041 3.317337 9.479953 -0.724132 -24.436335 -3.691097 -0.176299 30.679820 2.932346 7.190966 2.654805 0.000000 0.000000 0.000000 -0.727559 2.212893 -26.079509 3.689737 -0.685522 28.050391 -5.360107 -14.281273 9.409089 0.000000 0.000000 0.000000 -8.017112 0.381409 11.371690 2.542976 -1.316447 1.317702 -1.544428 -10.036280 10.443275 -4.582024 3.438421 -5.919081 0.000000 0.000000 0.000000 7.349880 -14.522802 4.232034 -12.585689 -32.360573 0.556012 77.412298 -40.963350 -27.599662 0.000000 0.000000 0.000000 -12.004654 12.118480 4.353584 31.403253 21.080825 1.123824 -117.217229 58.803721 -84.644142 0.000000 0.000000 0.000000 
-0.031399 0.910076 -0.023734 -3.875449 4.268523 2.413221 9.424732 -0.678333 -24.219465 -3.359064 -0.309654 32.185385 3.281387 7.594379 1.869620 0.000000 0.000000 0.000000 -0.101663 2.368292 -26.006298 3.080254 -0.428441 29.556882 -5.303879 -14.134731 8.552232 0.000000 0.000000 0.000000 -7.935128 0.363973 11.694934 2.135382 -1.154651 1.915159 -1.922106 -10.614995 10.117151 -3.845100 2.879918 -4.409806 0.000000 0.000000 0.000000 7.060315 -14.484579 4.228639 -11.734351 -33.235528 0.529991 80.900550 -43.825842 -31.475489 0.000000 0.000000 0.000000 -15.142397 11.839525 4.468181 26.798088 22.098801 0.885806 -117.800583 56.346263 -83.293109 0.000000 0.000000 0.000000 
-0.031491 0.905387 -0.024543 -3.914728 3.978378 1.585746 9.503616 -0.632404 -24.277656 -3.487257 -0.288702 33.911842 3.546700 7.867928 1.125649 0.000000 0.000000 0.000000 -0.140235 2.368337 -25.899673 3.316203 -0.512131 30.865290 -5.343813 -14.128306 7.450056 0.000000 0.000000 0.000000 -7.576748 0.316253 12.161492 1.651066 -0.894088 1.646232 -2.426174 -10.714590 10.705048 -3.534378 2.658753 -3.398027 0.000000 0.000000 0.000000 6.854641 -15.440457 4.519093 -12.136090 -33.404194 0.613658 85.055506 -46.244409 -35.910006 0.000000 0.000000 0.000000 -18.220903 11.293159 4.460946 22.463508 23.150873 0.574415 -118.808171 54.125897 -82.129583 0.000000 0.000000 0.000000 
-0.031586 0.902254 -0.025249 -3.991603 3.761557 0.743187 9.302727 -0.646335 -24.433223 -3.110162 -0.499851 35.764714 3.676867 8.089983 1.038455 0.000000 0.000000 0.000000 -0.009940 2.382212 -25.597144 3.335790 -0.514526 31.871497 -5.360260 -14.101525 6.772682 0.000000 0.000000 0.000000 -7.204944 0.257956 12.152683 1.084629 -0.654253 2.424470 -2.399055 -10.483782 10.734006 -2.637619 1.955225 -2.744415 0.000000 0.000000 0.000000 6.930344 -15.827274 4.608254 -13.405837 -33.866253 0.903327 88.356250 -46.878167 -38.523946 0.000000 0.000000 0.000000 -20.648651 11.563473 4.527874 18.443234 24.212047 0.261303 -118.922092 52.836597 -80.814861 0.000000 0.000000 0.000000 
-0.031834 0.900148 -0.025786 -3.863316 4.336695 -0.059866 8.738529 -0.773466 -24.232491 -2.520772 -0.901128 36.680256 3.563754 7.747605 0.703503 0.000000 0.000000 0.000000 -0.233864 2.262099 -25.100004 3.476458 -0.664846 32.597656 -5.613440 -14.538794 6.380938 0.000000 0.000000 0.000000 -6.588723 0.163587 12.531927 0.531310 -0.350735 1.886514 -2.818600 -10.036391 11.907331 -1.692556 1.203858 -1.913164 0.000000 0.000000 0.000000 6.951480 -16.804891 4.872467 -15.155558 -34.456639 1.240665 91.103463 -47.851834 -41.549694 0.000000 0.000000 0.000000 -22.031669 11.583057 4.349210 15.880540 25.321493 0.041173 -118.854484 52.303638 -79.549447 0.000000 0.000000 0.000000 
